# xmcd
#
# Track frame offsets: 
#        150
#        16865
#        33649
#        47796
#        60300
#        78992
#        90081
#        108710
#        121722
#        135623
#        150202
#        161783
#        175422
#        193922
#        209837
#        225279
#        240112
#        253504
#        264965
#        276636
#
# Disc length: 3983 seconds
#
# Revision: 0
# Processed by: cddbd v1.5.2PL0 Copyright (c) Steve Scherf et al.
# Submitted via: ExactAudioCopy v0.95b4
#
DISCID=020f8d14
DTITLE=Various Artist - Suomikantria
DYEAR=2007
DGENRE=Country
TTITLE0=Jukka Kuoppamäki - Valtatie
TTITLE1=Danny - Aaveratsastajat
TTITLE2=Muska - Jambalaya
TTITLE3=Anita Hirvonen and Kai Lind - Mä lähden stadiin
TTITLE4=Jukka Raitanen - Matkalaukkumies
TTITLE5=Jarno Sarjanen - Pienen pojan haaveet
TTITLE6=Pelle Miljoona - Gringo ratsastaa jälleen
TTITLE7=Pekka Loukiala - Kohtalon tähti
TTITLE8=Jaakko Teppo - Rekkakuskin tilitys
TTITLE9=Kai Lind - Yölinjalla
TTITLE10=Rauli Badding Somerjoki - Bussi Somerolle
TTITLE11=Pelle Miljoona - Pikkupoika ja pikitie
TTITLE12=Oski and los Scobes - Kaukokaipuu
TTITLE13=Tapio Heinonen - Lumikenttien kutsu
TTITLE14=Kake Randelin - Kengissä kulkurin
TTITLE15=Pelle Miljoona - Tähtivaeltaja
TTITLE16=Jarno Sarjanen - Taksikuski
TTITLE17=Kai Lind - Tien Kuningas
TTITLE18=Oiva Kaltiokumpu - Mua älä hylkää
TTITLE19=Snadi Pumppu - Stadin Gartsat
EXTD=
EXTT0=
EXTT1=
EXTT2=
EXTT3=
EXTT4=
EXTT5=
EXTT6=
EXTT7=
EXTT8=
EXTT9=
EXTT10=
EXTT11=
EXTT12=
EXTT13=
EXTT14=
EXTT15=
EXTT16=
EXTT17=
EXTT18=
EXTT19=
PLAYORDER=
